<mxfile host="app.diagrams.net" modified="2022-09-14T03:05:38.271Z" agent="5.0 (Windows NT 10.0; Win64; x64) AppleWebKit/537.36 (KHTML, like Gecko) Chrome/105.0.0.0 Safari/537.36 Edg/105.0.1343.33" etag="nnX0sjvlXHa0Q2FpuzIN" version="20.3.0" type="github">
  <diagram id="0jpka9_DnC1QhJvKmDaA" name="第 1 页">
    <mxGraphModel dx="334" dy="537" grid="1" gridSize="10" guides="1" tooltips="1" connect="1" arrows="1" fold="1" page="1" pageScale="1" pageWidth="827" pageHeight="1169" math="0" shadow="0">
      <root>
        <mxCell id="0" />
        <mxCell id="1" parent="0" />
        <mxCell id="0UhG0RffmmsP41roC84z-14" style="edgeStyle=orthogonalEdgeStyle;rounded=0;orthogonalLoop=1;jettySize=auto;html=1;entryX=0.5;entryY=0;entryDx=0;entryDy=0;" edge="1" parent="1" source="0UhG0RffmmsP41roC84z-1" target="0UhG0RffmmsP41roC84z-2">
          <mxGeometry relative="1" as="geometry" />
        </mxCell>
        <mxCell id="0UhG0RffmmsP41roC84z-1" value="开始" style="rounded=1;whiteSpace=wrap;html=1;" vertex="1" parent="1">
          <mxGeometry x="360" y="10" width="90" height="30" as="geometry" />
        </mxCell>
        <mxCell id="0UhG0RffmmsP41roC84z-13" style="edgeStyle=orthogonalEdgeStyle;rounded=0;orthogonalLoop=1;jettySize=auto;html=1;exitX=0.5;exitY=1;exitDx=0;exitDy=0;entryX=0.5;entryY=0;entryDx=0;entryDy=0;" edge="1" parent="1" source="0UhG0RffmmsP41roC84z-2" target="0UhG0RffmmsP41roC84z-3">
          <mxGeometry relative="1" as="geometry" />
        </mxCell>
        <mxCell id="0UhG0RffmmsP41roC84z-2" value="2000=&amp;gt;year" style="rounded=0;whiteSpace=wrap;html=1;" vertex="1" parent="1">
          <mxGeometry x="345" y="70" width="120" height="30" as="geometry" />
        </mxCell>
        <mxCell id="0UhG0RffmmsP41roC84z-5" value="" style="edgeStyle=orthogonalEdgeStyle;rounded=0;orthogonalLoop=1;jettySize=auto;html=1;" edge="1" parent="1" source="0UhG0RffmmsP41roC84z-3" target="0UhG0RffmmsP41roC84z-4">
          <mxGeometry relative="1" as="geometry" />
        </mxCell>
        <mxCell id="0UhG0RffmmsP41roC84z-6" value="" style="edgeStyle=orthogonalEdgeStyle;rounded=0;orthogonalLoop=1;jettySize=auto;html=1;" edge="1" parent="1" source="0UhG0RffmmsP41roC84z-3" target="0UhG0RffmmsP41roC84z-4">
          <mxGeometry relative="1" as="geometry" />
        </mxCell>
        <mxCell id="0UhG0RffmmsP41roC84z-20" style="edgeStyle=orthogonalEdgeStyle;rounded=0;orthogonalLoop=1;jettySize=auto;html=1;entryX=0.5;entryY=0;entryDx=0;entryDy=0;" edge="1" parent="1" source="0UhG0RffmmsP41roC84z-3" target="0UhG0RffmmsP41roC84z-19">
          <mxGeometry relative="1" as="geometry" />
        </mxCell>
        <mxCell id="0UhG0RffmmsP41roC84z-3" value="year不能被4整除" style="rhombus;whiteSpace=wrap;html=1;" vertex="1" parent="1">
          <mxGeometry x="335" y="120" width="140" height="60" as="geometry" />
        </mxCell>
        <mxCell id="0UhG0RffmmsP41roC84z-12" style="edgeStyle=orthogonalEdgeStyle;rounded=0;orthogonalLoop=1;jettySize=auto;html=1;exitX=0.5;exitY=1;exitDx=0;exitDy=0;entryX=0.5;entryY=0;entryDx=0;entryDy=0;" edge="1" parent="1" source="0UhG0RffmmsP41roC84z-4" target="0UhG0RffmmsP41roC84z-11">
          <mxGeometry relative="1" as="geometry" />
        </mxCell>
        <mxCell id="0UhG0RffmmsP41roC84z-22" style="edgeStyle=orthogonalEdgeStyle;rounded=0;orthogonalLoop=1;jettySize=auto;html=1;entryX=0.5;entryY=0;entryDx=0;entryDy=0;" edge="1" parent="1" source="0UhG0RffmmsP41roC84z-4" target="0UhG0RffmmsP41roC84z-16">
          <mxGeometry relative="1" as="geometry" />
        </mxCell>
        <mxCell id="0UhG0RffmmsP41roC84z-4" value="year不能被100整除" style="rhombus;whiteSpace=wrap;html=1;" vertex="1" parent="1">
          <mxGeometry x="335" y="225" width="140" height="60" as="geometry" />
        </mxCell>
        <mxCell id="0UhG0RffmmsP41roC84z-7" value="N" style="text;html=1;align=center;verticalAlign=middle;resizable=0;points=[];autosize=1;strokeColor=none;fillColor=none;" vertex="1" parent="1">
          <mxGeometry x="405" y="195" width="30" height="30" as="geometry" />
        </mxCell>
        <mxCell id="0UhG0RffmmsP41roC84z-11" value="输出year&quot;是闰年&quot;" style="shape=parallelogram;perimeter=parallelogramPerimeter;whiteSpace=wrap;html=1;fixedSize=1;" vertex="1" parent="1">
          <mxGeometry x="345" y="320" width="120" height="60" as="geometry" />
        </mxCell>
        <mxCell id="0UhG0RffmmsP41roC84z-15" value="Y" style="text;html=1;align=center;verticalAlign=middle;resizable=0;points=[];autosize=1;strokeColor=none;fillColor=none;" vertex="1" parent="1">
          <mxGeometry x="405" y="290" width="30" height="30" as="geometry" />
        </mxCell>
        <mxCell id="0UhG0RffmmsP41roC84z-16" value="year不能被400整除" style="rhombus;whiteSpace=wrap;html=1;" vertex="1" parent="1">
          <mxGeometry x="510" y="275" width="140" height="60" as="geometry" />
        </mxCell>
        <mxCell id="0UhG0RffmmsP41roC84z-18" value="Y" style="text;html=1;align=center;verticalAlign=middle;resizable=0;points=[];autosize=1;strokeColor=none;fillColor=none;" vertex="1" parent="1">
          <mxGeometry x="490" y="120" width="30" height="30" as="geometry" />
        </mxCell>
        <mxCell id="0UhG0RffmmsP41roC84z-19" value="输出year&quot;不是闰年&quot;" style="shape=parallelogram;perimeter=parallelogramPerimeter;whiteSpace=wrap;html=1;fixedSize=1;" vertex="1" parent="1">
          <mxGeometry x="680" y="330" width="140" height="40" as="geometry" />
        </mxCell>
        <mxCell id="0UhG0RffmmsP41roC84z-23" value="输出year“不是闰年”" style="shape=parallelogram;perimeter=parallelogramPerimeter;whiteSpace=wrap;html=1;fixedSize=1;" vertex="1" parent="1">
          <mxGeometry x="445" y="420" width="120" height="60" as="geometry" />
        </mxCell>
        <mxCell id="0UhG0RffmmsP41roC84z-24" value="输出year“是闰年”" style="shape=parallelogram;perimeter=parallelogramPerimeter;whiteSpace=wrap;html=1;fixedSize=1;" vertex="1" parent="1">
          <mxGeometry x="565" y="420" width="120" height="60" as="geometry" />
        </mxCell>
      </root>
    </mxGraphModel>
  </diagram>
</mxfile>
